<svg width="1159" height="311" viewBox="0 0 1159 311" fill="none" xmlns="http://www.w3.org/2000/svg">
<g clip-path="url(#clip0_3627_4572)">
<path d="M444.59 114.85V119.42C444.59 129.37 441.18 137.63 434.35 144.2C427.52 150.77 418.48 154.06 407.23 154.06C395.98 154.06 386.01 150.23 378.42 142.57C370.83 134.91 367.04 125.56 367.04 114.53C367.04 103.5 370.83 94.15 378.42 86.49C386.01 78.83 395.54 75 407.01 75C414.05 75 420.52 76.69 426.4 80.06C432.28 83.44 436.82 87.88 440.01 93.4L431.3 98.52C429.12 94.38 425.84 91.06 421.44 88.55C417.05 86.04 412.2 84.79 406.9 84.79C398.19 84.79 391.03 87.64 385.44 93.34C379.85 99.04 377.05 106.1 377.05 114.52C377.05 122.94 379.86 129.99 385.49 135.65C391.12 141.31 398.4 144.15 407.33 144.15C414.95 144.15 421.12 142.28 425.84 138.54C430.56 134.8 433.43 129.95 434.44 124H406.45V114.85H444.57H444.59Z" fill="#6E2B8B"/>
<path d="M613.16 154.06C601.62 154.06 592.09 150.25 584.57 142.62C577.06 135 573.3 125.63 573.3 114.52C573.3 103.41 577.06 94.04 584.57 86.42C592.08 78.8 601.61 74.98 613.16 74.98C620.13 74.98 626.54 76.65 632.38 79.99C638.22 83.33 642.78 87.83 646.05 93.5L637.23 98.62C635.05 94.41 631.8 91.05 627.48 88.55C623.16 86.04 618.39 84.79 613.16 84.79C604.37 84.79 597.2 87.62 591.65 93.29C586.1 98.95 583.32 106.03 583.32 114.53C583.32 123.03 586.1 130 591.65 135.66C597.2 141.32 604.37 144.16 613.16 144.16C618.39 144.16 623.16 142.91 627.48 140.4C631.8 137.89 635.05 134.57 637.23 130.43L646.05 135.44C642.85 141.1 638.32 145.62 632.44 149C626.56 152.38 620.13 154.07 613.16 154.07V154.06Z" fill="#6E2B8B"/>
<path d="M737.55 75.29C748.28 75.29 757.19 79.1 764.28 86.71C771.37 94.32 774.92 103.65 774.92 114.67C774.92 125.69 771.38 135.02 764.28 142.64C757.19 150.25 748.28 154.06 737.55 154.06H706.83V75.29H737.55ZM737.55 144.16C745.58 144.16 752.14 141.35 757.24 135.72C762.34 130.09 764.89 123.08 764.89 114.68C764.89 106.28 762.34 99.26 757.24 93.64C752.14 88.01 745.57 85.2 737.55 85.2H717.29V144.17H737.55V144.16Z" fill="#6E2B8B"/>
<path d="M847.94 154.06L841.51 136.69H806.091L799.66 154.06H788.521L823.8 75.16L859.081 154.06H847.94ZM809.651 127.06H837.951L823.8 91.16L809.651 127.06Z" fill="#6E2B8B"/>
<path d="M924.35 75.29V85.19H901.06V154.06H890.71V85.19H867.53V75.29H924.36H924.35Z" fill="#6E2B8B"/>
<path d="M992.1 154.06L985.67 136.69H950.25L943.82 154.06H932.68L967.96 75.16L1003.24 154.06H992.1ZM953.81 127.06H982.11L967.96 91.2L953.81 127.06Z" fill="#6E2B8B"/>
<path d="M1031.26 155.3C1029.24 155.3 1027.51 154.59 1026.08 153.16C1024.65 151.74 1023.94 150.01 1023.94 147.98C1023.94 145.95 1024.65 144.23 1026.08 142.8C1027.5 141.37 1029.23 140.66 1031.26 140.66C1033.29 140.66 1035.1 141.37 1036.49 142.8C1037.88 144.23 1038.57 145.95 1038.57 147.98C1038.57 150.01 1037.88 151.73 1036.49 153.16C1035.1 154.59 1033.36 155.3 1031.26 155.3Z" fill="#6E2B8B"/>
<path d="M1116.56 154.06L1110.13 136.69H1074.71L1068.28 154.06H1057.14L1092.42 75.16L1127.7 154.06H1116.56ZM1078.27 127.06H1106.57L1092.42 91.2L1078.27 127.06Z" fill="#6E2B8B"/>
<path d="M1148.29 75.29H1158.76V154.06H1148.29V75.29Z" fill="#6E2B8B"/>
<path d="M459.82 74.99H470.85L493.9 131.47L506.27 105.8L492.23 74.99H501.92L510.61 93.47L517.96 74.99H528.99L516.29 105.45L526.98 131.47L551.71 74.99H563.41L528.32 154.06L511.61 118.46L494.57 154.06L459.82 74.99Z" fill="#6E2B8B"/>
<path d="M306.82 37.17C306.82 16.64 290.18 0 269.65 0C249.12 0 232.57 16.56 232.48 37.02L71.65 77.09C65.27 65.04 52.61 56.83 38.03 56.83C17.03 56.83 0 73.86 0 94.86C0 115.86 17.03 132.89 38.03 132.89C52.09 132.89 64.36 125.26 70.94 113.91L125.09 129.97C124.85 132.05 124.72 134.15 124.72 136.29C124.72 166.9 149.54 191.72 180.15 191.72C183.74 191.72 187.25 191.37 190.65 190.71L205.4 241.02C195.7 247.91 189.37 259.23 189.37 272.03C189.37 293.03 206.4 310.06 227.4 310.06C248.4 310.06 265.43 293.03 265.43 272.03C265.43 257.2 256.94 244.36 244.55 238.09L271.43 74.28C291.13 73.35 306.82 57.09 306.82 37.15V37.17ZM129.75 113.21L75.98 97.26C76.03 96.46 76.06 95.66 76.06 94.86L236.91 54.78C237.54 55.95 238.24 57.09 238.99 58.18L210.68 90.04C201.92 84.25 191.43 80.86 180.14 80.86C157.77 80.86 138.51 94.12 129.75 113.21ZM207.03 184.76C224.05 175.3 235.57 157.14 235.57 136.29C235.57 123.24 231.05 111.26 223.51 101.79L251.91 69.83C252.43 70.11 252.95 70.38 253.49 70.64L226.68 234.03C224.96 234.06 223.27 234.2 221.61 234.45L207.04 184.76H207.03Z" fill="url(#paint0_linear_3627_4572)"/>
<path d="M181.13 176.01C203.011 176.01 220.75 158.272 220.75 136.39C220.75 114.509 203.011 96.77 181.13 96.77C159.248 96.77 141.51 114.509 141.51 136.39C141.51 158.272 159.248 176.01 181.13 176.01Z" fill="url(#paint1_linear_3627_4572)"/>
<path d="M269.17 60.33C281.884 60.33 292.19 50.0236 292.19 37.31C292.19 24.5964 281.884 14.29 269.17 14.29C256.457 14.29 246.15 24.5964 246.15 37.31C246.15 50.0236 256.457 60.33 269.17 60.33Z" fill="url(#paint2_linear_3627_4572)"/>
<path d="M393.33 198.52H393.13C390.38 198.58 388.1 199.75 386.53 201.93C385.32 203.67 384.65 206.06 384.65 208.67C384.65 209.85 384.83 211.01 385.17 212.08C385.77 214.19 386.76 216.32 388.11 218.42C389.32 220.29 390.54 222.1 391.73 223.8C392.06 224.29 392.36 224.78 392.66 225.25C392.85 225.55 393.03 225.84 393.18 226.07C393.77 227.13 394.54 228.69 394.54 229.9C394.54 231.11 394.37 233.21 393.2 233.21C392.88 233.21 392.34 233.21 391.91 231.75C391.52 230.63 391.49 229 391.49 227.56V226.46L383.85 227.18V228.09C383.85 230.66 384.03 233.93 385.41 236.44C386.88 239.11 389.5 240.47 393.2 240.47C396.42 240.47 398.82 239.32 400.36 237.05C401.59 235.24 402.18 232.81 402.18 229.63C402.18 227.55 401.6 225.46 400.37 223.05C399.3 220.97 397.88 218.83 396.64 216.99C396.37 216.59 396.1 216.2 395.83 215.81C395 214.61 394.22 213.47 393.59 212.38C392.69 210.8 392.29 209.66 392.29 208.67C392.29 206.78 392.63 205.81 393.26 205.79C393.69 205.79 394 206.41 394.17 206.91C394.5 207.9 394.54 209.24 394.54 210.42V211.52L402.18 210.8V209.89C402.18 207.87 401.91 204.95 400.62 202.5C399.22 199.89 396.69 198.51 393.33 198.51V198.52Z" fill="url(#paint3_linear_3627_4572)"/>
<path d="M448.48 200.06C447.13 199.04 445.44 198.53 443.47 198.53C441.5 198.53 439.73 199.06 438.4 200.06C437.33 200.86 436.49 201.94 435.86 203.35C435.22 204.69 434.87 206.24 434.81 207.99V231.05C434.86 232.8 435.22 234.36 435.85 235.68C436.47 237.06 437.3 238.12 438.37 238.92C439.66 239.95 441.37 240.47 443.47 240.47C445.57 240.47 447.22 239.95 448.48 238.94C449.61 238.1 450.49 237 451.07 235.7C451.71 234.36 452.07 232.79 452.12 231.02V207.95C452.07 206.24 451.71 204.69 451.08 203.37C450.47 202.02 449.57 200.88 448.48 200.06ZM445.38 231.02C445.38 231.6 445.33 232.08 445.17 232.45C444.95 233.25 444.48 233.89 443.47 233.89C442.99 233.89 442.61 233.73 442.35 233.46C441.82 232.88 441.55 232.13 441.55 231.02V207.99C441.55 207.45 441.6 206.97 441.76 206.55C441.98 205.86 442.45 205.11 443.47 205.11C443.94 205.11 444.37 205.27 444.63 205.54C445.17 206.18 445.38 206.92 445.38 207.99V231.02Z" fill="url(#paint4_linear_3627_4572)"/>
<path d="M493.66 198.95H485.92V240.04H501.27V232.73H493.66V198.95Z" fill="url(#paint5_linear_3627_4572)"/>
<path d="M544.04 199.95V231.02C544.04 231.6 543.99 232.08 543.83 232.45C543.62 233.25 543.14 233.89 542.13 233.89C541.65 233.89 541.27 233.73 541.01 233.46C540.48 232.88 540.21 232.13 540.21 231.02V198.95H533.47V231.05C533.53 232.8 533.88 234.36 534.51 235.68C535.13 237.06 535.96 238.12 537.03 238.92C538.32 239.95 540.03 240.47 542.13 240.47C544.23 240.47 545.88 239.95 547.14 238.94C548.27 238.09 549.15 237 549.73 235.7C550.37 234.36 550.73 232.79 550.78 231.02V198.95H544.04V199.95Z" fill="url(#paint6_linear_3627_4572)"/>
<path d="M582.88 206.86H588.3V240.04H596.05V206.86H601.47V198.95H582.88V206.86Z" fill="url(#paint7_linear_3627_4572)"/>
<path d="M641.37 198.95H633.62V240.04H641.37V198.95Z" fill="url(#paint8_linear_3627_4572)"/>
<path d="M688.83 200.06C687.48 199.04 685.79 198.53 683.82 198.53C681.85 198.53 680.08 199.06 678.75 200.06C677.68 200.86 676.84 201.94 676.21 203.35C675.57 204.69 675.22 206.24 675.15 207.99V231.05C675.21 232.8 675.57 234.36 676.2 235.68C676.82 237.06 677.65 238.12 678.72 238.92C680.01 239.95 681.72 240.47 683.82 240.47C685.92 240.47 687.57 239.95 688.83 238.94C689.96 238.1 690.84 237 691.42 235.7C692.06 234.36 692.42 232.79 692.47 231.02V207.95C692.42 206.24 692.06 204.69 691.43 203.37C690.82 202.02 689.92 200.88 688.83 200.06ZM685.73 231.02C685.73 231.6 685.68 232.08 685.52 232.45C685.3 233.25 684.83 233.89 683.81 233.89C683.34 233.89 682.96 233.73 682.7 233.46C682.17 232.88 681.9 232.13 681.9 231.02V207.99C681.9 207.45 681.95 206.97 682.11 206.55C682.33 205.86 682.8 205.11 683.81 205.11C684.29 205.11 684.72 205.27 684.98 205.54C685.52 206.18 685.73 206.92 685.73 207.99V231.02Z" fill="url(#paint9_linear_3627_4572)"/>
<path d="M737.76 215.81L733.14 198.95H726.27V240.04H733.53V223.19L738.15 240.04H745.02V198.95H737.76V215.81Z" fill="url(#paint10_linear_3627_4572)"/>
<path d="M831.04 214.16L828.14 198.95H819.29V240.04H826.61V224.38L828.95 240.04H833.12L835.46 224.37V240.04H842.78V198.95H833.93L831.04 214.16Z" fill="url(#paint11_linear_3627_4572)"/>
<path d="M881.39 198.95L875.19 240.05H882.81L883.87 232.07H887.65L888.72 240.05H896.34L890.14 198.95H881.39ZM883.8 225.01L885.45 212.67L885.6 211.66H885.92L886.08 212.67L887.73 225.01H883.8Z" fill="url(#paint12_linear_3627_4572)"/>
<path d="M925.56 206.86H930.98V240.04H938.73V206.86H944.15V198.95H925.56V206.86Z" fill="url(#paint13_linear_3627_4572)"/>
<path d="M974.7 206.86H980.13V240.04H987.87V206.86H993.3V198.95H974.7V206.86Z" fill="url(#paint14_linear_3627_4572)"/>
<path d="M1025.44 240.04H1040.58V232.14H1033.19V223.4H1038.51V215.12H1033.19V206.86H1040.58V198.95H1025.44V240.04Z" fill="url(#paint15_linear_3627_4572)"/>
<path d="M1091.21 211.23C1091.21 203.08 1087.59 198.95 1080.43 198.95H1073.68V240.05H1081.43V225.18L1084.11 240.05H1091.91L1088.12 220.52C1090.1 218.79 1091.21 215.46 1091.21 211.23ZM1083.14 216.39C1082.29 217.13 1081.23 217.24 1080.43 217.24V205.64C1081.23 205.64 1082.29 205.7 1083.14 206.44C1083.99 207.19 1084.68 208.68 1084.68 211.44C1084.68 214.2 1083.99 215.64 1083.14 216.39Z" fill="url(#paint16_linear_3627_4572)"/>
<path d="M1141.95 210.81V209.9C1141.95 207.88 1141.68 204.96 1140.4 202.51C1139 199.9 1136.47 198.52 1133.11 198.52H1132.91C1130.16 198.58 1127.88 199.75 1126.31 201.93C1125.1 203.67 1124.43 206.06 1124.43 208.67C1124.43 209.85 1124.61 211.01 1124.95 212.08C1125.55 214.19 1126.54 216.33 1127.89 218.42C1129.09 220.27 1130.32 222.09 1131.51 223.8C1131.83 224.28 1132.13 224.76 1132.42 225.22C1132.61 225.53 1132.8 225.83 1132.96 226.07C1133.55 227.13 1134.33 228.68 1134.33 229.9C1134.33 231.12 1134.16 233.21 1132.99 233.21C1132.67 233.21 1132.13 233.21 1131.7 231.75C1131.33 230.68 1131.28 229.1 1131.28 227.56V226.46L1123.64 227.18V228.09C1123.64 230.66 1123.82 233.93 1125.2 236.44C1126.67 239.11 1129.29 240.47 1132.99 240.47C1136.2 240.47 1138.61 239.32 1140.15 237.05C1141.37 235.24 1141.97 232.81 1141.97 229.63C1141.97 227.55 1141.39 225.46 1140.16 223.05C1139.09 220.97 1137.67 218.83 1136.43 216.99C1136.16 216.59 1135.89 216.19 1135.62 215.8C1134.79 214.6 1134.01 213.46 1133.39 212.37C1132.49 210.79 1132.09 209.65 1132.09 208.66C1132.09 206.77 1132.43 205.8 1133.06 205.78C1133.49 205.78 1133.8 206.4 1133.97 206.9C1134.3 207.89 1134.34 209.23 1134.34 210.41V211.51L1141.98 210.79L1141.95 210.81Z" fill="url(#paint17_linear_3627_4572)"/>
</g>
<defs>
<linearGradient id="paint0_linear_3627_4572" x1="114.67" y1="21.76" x2="314.92" y2="251.34" gradientUnits="userSpaceOnUse">
<stop stop-color="#6F2B8B"/>
<stop offset="0.5" stop-color="#5762AF"/>
<stop offset="1" stop-color="#4296D1"/>
</linearGradient>
<linearGradient id="paint1_linear_3627_4572" x1="216.55" y1="109.19" x2="152.12" y2="158.68" gradientUnits="userSpaceOnUse">
<stop stop-color="#FDC25E"/>
<stop offset="0.39" stop-color="#F89E61"/>
<stop offset="1" stop-color="#F16B66"/>
</linearGradient>
<linearGradient id="paint2_linear_3627_4572" x1="291.55" y1="12.14" x2="254.2" y2="54.15" gradientUnits="userSpaceOnUse">
<stop stop-color="#FDC25E"/>
<stop offset="0.39" stop-color="#F89E61"/>
<stop offset="1" stop-color="#F16B66"/>
</linearGradient>
<linearGradient id="paint3_linear_3627_4572" x1="393.015" y1="198.51" x2="393.015" y2="240.47" gradientUnits="userSpaceOnUse">
<stop offset="0.445" stop-color="#F16B66"/>
<stop offset="1" stop-color="#F89E61"/>
</linearGradient>
<linearGradient id="paint4_linear_3627_4572" x1="443.465" y1="198.53" x2="443.465" y2="240.47" gradientUnits="userSpaceOnUse">
<stop offset="0.445" stop-color="#F16B66"/>
<stop offset="1" stop-color="#F89E61"/>
</linearGradient>
<linearGradient id="paint5_linear_3627_4572" x1="493.595" y1="198.95" x2="493.595" y2="240.04" gradientUnits="userSpaceOnUse">
<stop offset="0.445" stop-color="#F16B66"/>
<stop offset="1" stop-color="#F89E61"/>
</linearGradient>
<linearGradient id="paint6_linear_3627_4572" x1="542.125" y1="198.95" x2="542.125" y2="240.47" gradientUnits="userSpaceOnUse">
<stop offset="0.445" stop-color="#F16B66"/>
<stop offset="1" stop-color="#F89E61"/>
</linearGradient>
<linearGradient id="paint7_linear_3627_4572" x1="592.175" y1="198.95" x2="592.175" y2="240.04" gradientUnits="userSpaceOnUse">
<stop offset="0.445" stop-color="#F16B66"/>
<stop offset="1" stop-color="#F89E61"/>
</linearGradient>
<linearGradient id="paint8_linear_3627_4572" x1="637.495" y1="198.95" x2="637.495" y2="240.04" gradientUnits="userSpaceOnUse">
<stop offset="0.445" stop-color="#F16B66"/>
<stop offset="1" stop-color="#F89E61"/>
</linearGradient>
<linearGradient id="paint9_linear_3627_4572" x1="683.81" y1="198.53" x2="683.81" y2="240.47" gradientUnits="userSpaceOnUse">
<stop offset="0.445" stop-color="#F16B66"/>
<stop offset="1" stop-color="#F89E61"/>
</linearGradient>
<linearGradient id="paint10_linear_3627_4572" x1="735.645" y1="198.95" x2="735.645" y2="240.04" gradientUnits="userSpaceOnUse">
<stop offset="0.445" stop-color="#F16B66"/>
<stop offset="1" stop-color="#F89E61"/>
</linearGradient>
<linearGradient id="paint11_linear_3627_4572" x1="831.035" y1="198.95" x2="831.035" y2="240.04" gradientUnits="userSpaceOnUse">
<stop offset="0.445" stop-color="#F16B66"/>
<stop offset="1" stop-color="#F89E61"/>
</linearGradient>
<linearGradient id="paint12_linear_3627_4572" x1="885.765" y1="198.95" x2="885.765" y2="240.05" gradientUnits="userSpaceOnUse">
<stop offset="0.445" stop-color="#F16B66"/>
<stop offset="1" stop-color="#F89E61"/>
</linearGradient>
<linearGradient id="paint13_linear_3627_4572" x1="934.855" y1="198.95" x2="934.855" y2="240.04" gradientUnits="userSpaceOnUse">
<stop offset="0.445" stop-color="#F16B66"/>
<stop offset="1" stop-color="#F89E61"/>
</linearGradient>
<linearGradient id="paint14_linear_3627_4572" x1="984" y1="198.95" x2="984" y2="240.04" gradientUnits="userSpaceOnUse">
<stop offset="0.445" stop-color="#F16B66"/>
<stop offset="1" stop-color="#F89E61"/>
</linearGradient>
<linearGradient id="paint15_linear_3627_4572" x1="1033.01" y1="198.95" x2="1033.01" y2="240.04" gradientUnits="userSpaceOnUse">
<stop offset="0.445" stop-color="#F16B66"/>
<stop offset="1" stop-color="#F89E61"/>
</linearGradient>
<linearGradient id="paint16_linear_3627_4572" x1="1082.79" y1="198.95" x2="1082.79" y2="240.05" gradientUnits="userSpaceOnUse">
<stop offset="0.445" stop-color="#F16B66"/>
<stop offset="1" stop-color="#F89E61"/>
</linearGradient>
<linearGradient id="paint17_linear_3627_4572" x1="1132.81" y1="198.52" x2="1132.81" y2="240.47" gradientUnits="userSpaceOnUse">
<stop offset="0.445" stop-color="#F16B66"/>
<stop offset="1" stop-color="#F89E61"/>
</linearGradient>
<clipPath id="clip0_3627_4572">
<rect width="1158.76" height="310.07" fill="white"/>
</clipPath>
</defs>
</svg>
